<svg width="842" height="900" xmlns="http://www.w3.org/2000/svg"><path d="M-186 324.808c98.833 25.098 202.707-4.042 311.625-87.42C289 112.323 387.627 41.448 426.125 123.096c38.497 81.649-138 210.463-233 326.135-95 115.673-117 30.778-47.5-44.3s243.5-243.103 145.5-211.995C193.125 224.043-186 516.293-186 638.1c0 121.806 363.391-20.004 537.258-193.004 173.867-173 153.33-415.738 294.094-459.92 140.763-44.182-22.727 317.588-261.227 528.719-238.5 211.13-425.6 325.804-425.6 516.074 0 190.27 216.894 166.162 406.406 0 189.511-166.162 353.344-353.059 362.254-499.255 8.91-146.196-155.431 230.255-301.06 322.287-145.63 92.032-255 129.504-255-7.088 0-136.59 208-151.892 360-316.495 152-164.602 152.02-292.028 234.882-292.028 82.861 0 128.296-359.389-34.882-359.389S327.436 159.501-146.207 192.935" stroke="#FFF" fill="none" fill-rule="evenodd" opacity=".1"/></svg>