<?xml version="1.0" encoding="UTF-8"?>
<svg width="842px" height="900px" viewBox="0 0 842 900" version="1.1" xmlns="http://www.w3.org/2000/svg" xmlns:xlink="http://www.w3.org/1999/xlink">
    <!-- Generator: Sketch 58 (84663) - https://sketch.com -->
    <title>Path 200</title>
    <desc>Created with Sketch.</desc>
    <g id="Page-1" stroke="none" stroke-width="1" fill="none" fill-rule="evenodd" opacity="0.100000001">
        <g id="Prebuild-5" stroke="#FFFFFF">
            <path d="M-186,324.80787 C-87.1674264,349.906037 16.7074862,320.766296 125.624738,237.388646 C289.000615,112.322171 387.627436,41.4468414 426.124738,123.095288 C464.622039,204.743735 288.124738,333.557891 193.124738,449.230345 C98.1247376,564.9028 76.1247376,480.008467 145.624738,404.930375 C215.124738,329.852283 389.124738,161.827375 291.124738,192.935334 C193.124738,224.043294 -186,516.293498 -186,638.099202 C-186,759.904907 177.391349,618.095288 351.258043,445.095288 C525.124738,272.095288 504.588914,29.3565066 645.351793,-14.8254057 C786.114672,-59.007318 622.624738,302.763372 384.124738,513.893658 C145.624738,725.023945 -41.4752655,839.698261 -41.4752655,1029.96779 C-41.4752655,1220.23732 175.41946,1196.12959 364.930946,1029.96779 C554.442432,863.805994 718.275447,676.909415 727.184782,530.713346 C736.094116,384.517278 571.753786,760.967607 426.124738,853 C280.495689,945.032393 171.124738,982.5035 171.124738,845.912366 C171.124738,709.321232 379.124738,694.019662 531.124738,529.41722 C683.124738,364.814778 683.145081,237.388646 766.006589,237.388646 C848.868097,237.388646 894.302596,-122 731.124738,-122 C567.94688,-122 327.436324,159.501072 -146.207267,192.935334" id="Path-200"></path>
        </g>
    </g>
</svg>