<?xml version="1.0" encoding="UTF-8"?>
<svg width="1420px" height="900px" viewBox="0 0 1420 900" version="1.1" xmlns="http://www.w3.org/2000/svg" xmlns:xlink="http://www.w3.org/1999/xlink">
    <!-- Generator: Sketch 58 (84663) - https://sketch.com -->
    <title>Prebuild 2</title>
    <desc>Created with Sketch.</desc>
    <g id="Prebuild-2" stroke="none" stroke-width="1" fill="none" fill-rule="evenodd" opacity="0.481770833">
        <g id="Group-2">
            <g id="Group" opacity="0.396275112">
                <rect id="Rectangle" fill="#EFEFEF" x="100" y="0" width="1" height="900"></rect>
                <rect id="Rectangle" fill="#EFEFEF" x="201" y="0" width="1" height="900"></rect>
                <rect id="Rectangle" fill="#EFEFEF" x="0" y="100" width="200" height="1"></rect>
                <rect id="Rectangle" fill="#EFEFEF" x="0" y="201" width="200" height="1"></rect>
                <rect id="Rectangle" fill="#EFEFEF" x="0" y="302" width="200" height="1"></rect>
                <rect id="Rectangle" fill="#EFEFEF" x="0" y="403" width="200" height="1"></rect>
                <circle id="Oval" fill="#797979" cx="89" cy="11" r="3"></circle>
                <circle id="Oval" fill="#797979" cx="190" cy="11" r="3"></circle>
                <circle id="Oval" fill="#797979" cx="190" cy="116" r="3"></circle>
                <circle id="Oval" fill="#797979" cx="89" cy="112" r="3"></circle>
                <circle id="Oval" fill="#797979" cx="89" cy="213" r="3"></circle>
                <circle id="Oval" fill="#797979" cx="190" cy="213" r="3"></circle>
                <circle id="Oval" fill="#797979" cx="190" cy="314" r="3"></circle>
                <circle id="Oval" fill="#797979" cx="89" cy="314" r="3"></circle>
                <rect id="Rectangle" fill="#EFEFEF" x="0" y="504" width="200" height="1"></rect>
                <rect id="Rectangle" fill="#EFEFEF" x="0" y="605" width="200" height="1"></rect>
                <rect id="Rectangle" fill="#EFEFEF" x="0" y="706" width="200" height="1"></rect>
                <rect id="Rectangle" fill="#EFEFEF" x="0" y="807" width="200" height="1"></rect>
                <circle id="Oval" fill="#797979" cx="190" cy="516" r="3"></circle>
                <circle id="Oval" fill="#797979" cx="88" cy="516" r="3"></circle>
                <circle id="Oval" fill="#797979" cx="190" cy="421" r="3"></circle>
                <circle id="Oval" fill="#797979" cx="88" cy="421" r="3"></circle>
                <circle id="Oval" fill="#797979" cx="89" cy="617" r="3"></circle>
                <circle id="Oval" fill="#797979" cx="190" cy="617" r="3"></circle>
                <circle id="Oval" fill="#797979" cx="190" cy="718" r="3"></circle>
                <circle id="Oval" fill="#797979" cx="89" cy="718" r="3"></circle>
                <circle id="Oval" fill="#797979" cx="190" cy="819" r="3"></circle>
                <circle id="Oval" fill="#797979" cx="89" cy="819" r="3"></circle>
            </g>
            <g id="Group" opacity="0.396275112" transform="translate(203.000000, 0.000000)">
                <rect id="Rectangle" fill="#EFEFEF" x="100" y="0" width="1" height="900"></rect>
                <rect id="Rectangle" fill="#EFEFEF" x="201" y="0" width="1" height="900"></rect>
                <rect id="Rectangle" fill="#EFEFEF" x="0" y="100" width="200" height="1"></rect>
                <rect id="Rectangle" fill="#EFEFEF" x="0" y="201" width="200" height="1"></rect>
                <rect id="Rectangle" fill="#EFEFEF" x="0" y="302" width="200" height="1"></rect>
                <rect id="Rectangle" fill="#EFEFEF" x="0" y="403" width="200" height="1"></rect>
                <circle id="Oval" fill="#797979" cx="89" cy="11" r="3"></circle>
                <circle id="Oval" fill="#797979" cx="190" cy="11" r="3"></circle>
                <circle id="Oval" fill="#797979" cx="190" cy="116" r="3"></circle>
                <circle id="Oval" fill="#797979" cx="89" cy="112" r="3"></circle>
                <circle id="Oval" fill="#797979" cx="89" cy="213" r="3"></circle>
                <circle id="Oval" fill="#797979" cx="190" cy="213" r="3"></circle>
                <circle id="Oval" fill="#797979" cx="190" cy="314" r="3"></circle>
                <circle id="Oval" fill="#797979" cx="89" cy="314" r="3"></circle>
                <rect id="Rectangle" fill="#EFEFEF" x="0" y="504" width="200" height="1"></rect>
                <rect id="Rectangle" fill="#EFEFEF" x="0" y="605" width="200" height="1"></rect>
                <rect id="Rectangle" fill="#EFEFEF" x="0" y="706" width="200" height="1"></rect>
                <rect id="Rectangle" fill="#EFEFEF" x="0" y="807" width="200" height="1"></rect>
                <circle id="Oval" fill="#797979" cx="190" cy="516" r="3"></circle>
                <circle id="Oval" fill="#797979" cx="88" cy="516" r="3"></circle>
                <circle id="Oval" fill="#797979" cx="190" cy="421" r="3"></circle>
                <circle id="Oval" fill="#797979" cx="88" cy="421" r="3"></circle>
                <circle id="Oval" fill="#797979" cx="89" cy="617" r="3"></circle>
                <circle id="Oval" fill="#797979" cx="190" cy="617" r="3"></circle>
                <circle id="Oval" fill="#797979" cx="190" cy="718" r="3"></circle>
                <circle id="Oval" fill="#797979" cx="89" cy="718" r="3"></circle>
                <circle id="Oval" fill="#797979" cx="190" cy="819" r="3"></circle>
                <circle id="Oval" fill="#797979" cx="89" cy="819" r="3"></circle>
            </g>
            <g id="Group" opacity="0.396275112" transform="translate(406.000000, 0.000000)">
                <rect id="Rectangle" fill="#EFEFEF" x="100" y="0" width="1" height="900"></rect>
                <rect id="Rectangle" fill="#EFEFEF" x="201" y="0" width="1" height="900"></rect>
                <rect id="Rectangle" fill="#EFEFEF" x="0" y="100" width="200" height="1"></rect>
                <rect id="Rectangle" fill="#EFEFEF" x="0" y="201" width="200" height="1"></rect>
                <rect id="Rectangle" fill="#EFEFEF" x="0" y="302" width="200" height="1"></rect>
                <rect id="Rectangle" fill="#EFEFEF" x="0" y="403" width="200" height="1"></rect>
                <circle id="Oval" fill="#797979" cx="89" cy="11" r="3"></circle>
                <circle id="Oval" fill="#797979" cx="190" cy="11" r="3"></circle>
                <circle id="Oval" fill="#797979" cx="190" cy="116" r="3"></circle>
                <circle id="Oval" fill="#797979" cx="89" cy="112" r="3"></circle>
                <circle id="Oval" fill="#797979" cx="89" cy="213" r="3"></circle>
                <circle id="Oval" fill="#797979" cx="190" cy="213" r="3"></circle>
                <circle id="Oval" fill="#797979" cx="190" cy="314" r="3"></circle>
                <circle id="Oval" fill="#797979" cx="89" cy="314" r="3"></circle>
                <rect id="Rectangle" fill="#EFEFEF" x="0" y="504" width="200" height="1"></rect>
                <rect id="Rectangle" fill="#EFEFEF" x="0" y="605" width="200" height="1"></rect>
                <rect id="Rectangle" fill="#EFEFEF" x="0" y="706" width="200" height="1"></rect>
                <rect id="Rectangle" fill="#EFEFEF" x="0" y="807" width="200" height="1"></rect>
                <circle id="Oval" fill="#797979" cx="190" cy="516" r="3"></circle>
                <circle id="Oval" fill="#797979" cx="88" cy="516" r="3"></circle>
                <circle id="Oval" fill="#797979" cx="190" cy="421" r="3"></circle>
                <circle id="Oval" fill="#797979" cx="88" cy="421" r="3"></circle>
                <circle id="Oval" fill="#797979" cx="89" cy="617" r="3"></circle>
                <circle id="Oval" fill="#797979" cx="190" cy="617" r="3"></circle>
                <circle id="Oval" fill="#797979" cx="190" cy="718" r="3"></circle>
                <circle id="Oval" fill="#797979" cx="89" cy="718" r="3"></circle>
                <circle id="Oval" fill="#797979" cx="190" cy="819" r="3"></circle>
                <circle id="Oval" fill="#797979" cx="89" cy="819" r="3"></circle>
            </g>
            <g id="Group" opacity="0.396275112" transform="translate(609.000000, 0.000000)">
                <rect id="Rectangle" fill="#EFEFEF" x="100" y="0" width="1" height="900"></rect>
                <rect id="Rectangle" fill="#EFEFEF" x="201" y="0" width="1" height="900"></rect>
                <rect id="Rectangle" fill="#EFEFEF" x="0" y="100" width="200" height="1"></rect>
                <rect id="Rectangle" fill="#EFEFEF" x="0" y="201" width="200" height="1"></rect>
                <rect id="Rectangle" fill="#EFEFEF" x="0" y="302" width="200" height="1"></rect>
                <rect id="Rectangle" fill="#EFEFEF" x="0" y="403" width="200" height="1"></rect>
                <circle id="Oval" fill="#797979" cx="89" cy="11" r="3"></circle>
                <circle id="Oval" fill="#797979" cx="190" cy="11" r="3"></circle>
                <circle id="Oval" fill="#797979" cx="190" cy="116" r="3"></circle>
                <circle id="Oval" fill="#797979" cx="89" cy="112" r="3"></circle>
                <circle id="Oval" fill="#797979" cx="89" cy="213" r="3"></circle>
                <circle id="Oval" fill="#797979" cx="190" cy="213" r="3"></circle>
                <circle id="Oval" fill="#797979" cx="190" cy="314" r="3"></circle>
                <circle id="Oval" fill="#797979" cx="89" cy="314" r="3"></circle>
                <rect id="Rectangle" fill="#EFEFEF" x="0" y="504" width="200" height="1"></rect>
                <rect id="Rectangle" fill="#EFEFEF" x="0" y="605" width="200" height="1"></rect>
                <rect id="Rectangle" fill="#EFEFEF" x="0" y="706" width="200" height="1"></rect>
                <rect id="Rectangle" fill="#EFEFEF" x="0" y="807" width="200" height="1"></rect>
                <circle id="Oval" fill="#797979" cx="190" cy="516" r="3"></circle>
                <circle id="Oval" fill="#797979" cx="88" cy="516" r="3"></circle>
                <circle id="Oval" fill="#797979" cx="190" cy="421" r="3"></circle>
                <circle id="Oval" fill="#797979" cx="88" cy="421" r="3"></circle>
                <circle id="Oval" fill="#797979" cx="89" cy="617" r="3"></circle>
                <circle id="Oval" fill="#797979" cx="190" cy="617" r="3"></circle>
                <circle id="Oval" fill="#797979" cx="190" cy="718" r="3"></circle>
                <circle id="Oval" fill="#797979" cx="89" cy="718" r="3"></circle>
                <circle id="Oval" fill="#797979" cx="190" cy="819" r="3"></circle>
                <circle id="Oval" fill="#797979" cx="89" cy="819" r="3"></circle>
            </g>
            <g id="Group" opacity="0.396275112" transform="translate(812.000000, 0.000000)">
                <rect id="Rectangle" fill="#EFEFEF" x="100" y="0" width="1" height="900"></rect>
                <rect id="Rectangle" fill="#EFEFEF" x="201" y="0" width="1" height="900"></rect>
                <rect id="Rectangle" fill="#EFEFEF" x="0" y="100" width="200" height="1"></rect>
                <rect id="Rectangle" fill="#EFEFEF" x="0" y="201" width="200" height="1"></rect>
                <rect id="Rectangle" fill="#EFEFEF" x="0" y="302" width="200" height="1"></rect>
                <rect id="Rectangle" fill="#EFEFEF" x="0" y="403" width="200" height="1"></rect>
                <circle id="Oval" fill="#797979" cx="89" cy="11" r="3"></circle>
                <circle id="Oval" fill="#797979" cx="190" cy="11" r="3"></circle>
                <circle id="Oval" fill="#797979" cx="190" cy="116" r="3"></circle>
                <circle id="Oval" fill="#797979" cx="89" cy="112" r="3"></circle>
                <circle id="Oval" fill="#797979" cx="89" cy="213" r="3"></circle>
                <circle id="Oval" fill="#797979" cx="190" cy="213" r="3"></circle>
                <circle id="Oval" fill="#797979" cx="190" cy="314" r="3"></circle>
                <circle id="Oval" fill="#797979" cx="89" cy="314" r="3"></circle>
                <rect id="Rectangle" fill="#EFEFEF" x="0" y="504" width="200" height="1"></rect>
                <rect id="Rectangle" fill="#EFEFEF" x="0" y="605" width="200" height="1"></rect>
                <rect id="Rectangle" fill="#EFEFEF" x="0" y="706" width="200" height="1"></rect>
                <rect id="Rectangle" fill="#EFEFEF" x="0" y="807" width="200" height="1"></rect>
                <circle id="Oval" fill="#797979" cx="190" cy="516" r="3"></circle>
                <circle id="Oval" fill="#797979" cx="88" cy="516" r="3"></circle>
                <circle id="Oval" fill="#797979" cx="190" cy="421" r="3"></circle>
                <circle id="Oval" fill="#797979" cx="88" cy="421" r="3"></circle>
                <circle id="Oval" fill="#797979" cx="89" cy="617" r="3"></circle>
                <circle id="Oval" fill="#797979" cx="190" cy="617" r="3"></circle>
                <circle id="Oval" fill="#797979" cx="190" cy="718" r="3"></circle>
                <circle id="Oval" fill="#797979" cx="89" cy="718" r="3"></circle>
                <circle id="Oval" fill="#797979" cx="190" cy="819" r="3"></circle>
                <circle id="Oval" fill="#797979" cx="89" cy="819" r="3"></circle>
            </g>
            <g id="Group" opacity="0.396275112" transform="translate(1015.000000, 0.000000)">
                <rect id="Rectangle" fill="#EFEFEF" x="100" y="0" width="1" height="900"></rect>
                <rect id="Rectangle" fill="#EFEFEF" x="201" y="0" width="1" height="900"></rect>
                <rect id="Rectangle" fill="#EFEFEF" x="0" y="100" width="200" height="1"></rect>
                <rect id="Rectangle" fill="#EFEFEF" x="0" y="201" width="200" height="1"></rect>
                <rect id="Rectangle" fill="#EFEFEF" x="0" y="302" width="200" height="1"></rect>
                <rect id="Rectangle" fill="#EFEFEF" x="0" y="403" width="200" height="1"></rect>
                <circle id="Oval" fill="#797979" cx="89" cy="11" r="3"></circle>
                <circle id="Oval" fill="#797979" cx="190" cy="11" r="3"></circle>
                <circle id="Oval" fill="#797979" cx="190" cy="116" r="3"></circle>
                <circle id="Oval" fill="#797979" cx="89" cy="112" r="3"></circle>
                <circle id="Oval" fill="#797979" cx="89" cy="213" r="3"></circle>
                <circle id="Oval" fill="#797979" cx="190" cy="213" r="3"></circle>
                <circle id="Oval" fill="#797979" cx="190" cy="314" r="3"></circle>
                <circle id="Oval" fill="#797979" cx="89" cy="314" r="3"></circle>
                <rect id="Rectangle" fill="#EFEFEF" x="0" y="504" width="200" height="1"></rect>
                <rect id="Rectangle" fill="#EFEFEF" x="0" y="605" width="200" height="1"></rect>
                <rect id="Rectangle" fill="#EFEFEF" x="0" y="706" width="200" height="1"></rect>
                <rect id="Rectangle" fill="#EFEFEF" x="0" y="807" width="200" height="1"></rect>
                <circle id="Oval" fill="#797979" cx="190" cy="516" r="3"></circle>
                <circle id="Oval" fill="#797979" cx="88" cy="516" r="3"></circle>
                <circle id="Oval" fill="#797979" cx="190" cy="421" r="3"></circle>
                <circle id="Oval" fill="#797979" cx="88" cy="421" r="3"></circle>
                <circle id="Oval" fill="#797979" cx="89" cy="617" r="3"></circle>
                <circle id="Oval" fill="#797979" cx="190" cy="617" r="3"></circle>
                <circle id="Oval" fill="#797979" cx="190" cy="718" r="3"></circle>
                <circle id="Oval" fill="#797979" cx="89" cy="718" r="3"></circle>
                <circle id="Oval" fill="#797979" cx="190" cy="819" r="3"></circle>
                <circle id="Oval" fill="#797979" cx="89" cy="819" r="3"></circle>
            </g>
            <g id="Group" opacity="0.396275112" transform="translate(1218.000000, 0.000000)">
                <rect id="Rectangle" fill="#EFEFEF" x="100" y="0" width="1" height="900"></rect>
                <rect id="Rectangle" fill="#EFEFEF" x="201" y="0" width="1" height="900"></rect>
                <rect id="Rectangle" fill="#EFEFEF" x="0" y="100" width="200" height="1"></rect>
                <rect id="Rectangle" fill="#EFEFEF" x="0" y="201" width="200" height="1"></rect>
                <rect id="Rectangle" fill="#EFEFEF" x="0" y="302" width="200" height="1"></rect>
                <rect id="Rectangle" fill="#EFEFEF" x="0" y="403" width="200" height="1"></rect>
                <circle id="Oval" fill="#797979" cx="89" cy="11" r="3"></circle>
                <circle id="Oval" fill="#797979" cx="190" cy="11" r="3"></circle>
                <circle id="Oval" fill="#797979" cx="190" cy="116" r="3"></circle>
                <circle id="Oval" fill="#797979" cx="89" cy="112" r="3"></circle>
                <circle id="Oval" fill="#797979" cx="89" cy="213" r="3"></circle>
                <circle id="Oval" fill="#797979" cx="190" cy="213" r="3"></circle>
                <circle id="Oval" fill="#797979" cx="190" cy="314" r="3"></circle>
                <circle id="Oval" fill="#797979" cx="89" cy="314" r="3"></circle>
                <rect id="Rectangle" fill="#EFEFEF" x="0" y="504" width="200" height="1"></rect>
                <rect id="Rectangle" fill="#EFEFEF" x="0" y="605" width="200" height="1"></rect>
                <rect id="Rectangle" fill="#EFEFEF" x="0" y="706" width="200" height="1"></rect>
                <rect id="Rectangle" fill="#EFEFEF" x="0" y="807" width="200" height="1"></rect>
                <circle id="Oval" fill="#797979" cx="190" cy="516" r="3"></circle>
                <circle id="Oval" fill="#797979" cx="88" cy="516" r="3"></circle>
                <circle id="Oval" fill="#797979" cx="190" cy="421" r="3"></circle>
                <circle id="Oval" fill="#797979" cx="88" cy="421" r="3"></circle>
                <circle id="Oval" fill="#797979" cx="89" cy="617" r="3"></circle>
                <circle id="Oval" fill="#797979" cx="190" cy="617" r="3"></circle>
                <circle id="Oval" fill="#797979" cx="190" cy="718" r="3"></circle>
                <circle id="Oval" fill="#797979" cx="89" cy="718" r="3"></circle>
                <circle id="Oval" fill="#797979" cx="190" cy="819" r="3"></circle>
                <circle id="Oval" fill="#797979" cx="89" cy="819" r="3"></circle>
            </g>
        </g>
    </g>
</svg>