<svg width="1223px" height="101px" viewBox="0 0 1223 101" version="1.1" xmlns="http://www.w3.org/2000/svg" xmlns:xlink="http://www.w3.org/1999/xlink">
    <g stroke="none" stroke-width="1" fill="none" fill-rule="evenodd">
        <g transform="translate(611.500000, 50.500000) scale(1, -1) translate(-611.500000, -50.500000) ">
            <path d="M591.732215,80.7021232 C591.732215,80.7021232 599.440176,78.2544612 611.568492,78.2544612 C634.734524,78.2544612 650.087223,94.8066038 672.062551,94.8066038 C688.252957,94.8066038 694.243355,89.4963753 694.243355,89.4963753 L694.243355,59.3930818 L591.611037,59.3930818 L591.732215,80.7021232 Z" fill="#C664A9"></path>
            <path d="M1146.28919,100.97835 C1128.86066,100.97835 1117.80714,95.4271609 1107.11715,90.059392 C1096.46931,84.712109 1086.41156,79.6620031 1070.12105,79.6620031 C1053.79893,79.6674025 1043.67268,84.714544 1032.95108,90.0575922 C1022.16099,95.4367951 1010.99683,101 993.436583,101 C976.008056,101 964.954534,95.4427767 954.264546,90.0690262 C943.616706,84.7169261 933.564218,79.6620031 917.273709,79.6620031 C900.946319,79.666185 890.820071,84.7091447 880.098471,90.048011 C869.30311,95.4217615 858.144217,100.97835 840.583974,100.97835 C823.155447,100.97835 812.101926,95.4271609 801.411937,90.0588097 C790.764098,84.712109 780.706341,79.6620031 764.4211,79.6620031 C748.098979,79.6668202 737.967462,84.714544 727.251131,90.0575922 C716.45577,95.4367951 705.296877,101 687.731366,101 C670.302839,101 659.249317,95.4427767 648.559329,90.0690262 C637.916758,84.7169261 627.859001,79.6620031 611.568492,79.6620031 C595.241102,79.6656027 585.114854,84.7085094 574.387985,90.048011 C563.597893,95.4217615 552.439,100.97835 534.873489,100.97835 C517.447069,100.97835 506.393021,95.4271609 495.704086,90.0588097 C485.0573,84.712109 475.001651,79.6620031 458.711668,79.6620031 C442.390074,79.6668202 432.262772,84.714544 421.541699,90.0575922 C410.747919,95.4367951 399.587445,101 382.025095,101 C364.596568,101 353.54252,95.4427767 342.853585,90.0690262 C332.207326,84.7169261 322.15115,79.6620031 305.861694,79.6620031 C289.536939,79.666185 279.408583,84.7091447 268.686456,90.048011 C257.893203,95.4217615 246.732729,100.97835 229.170906,100.97835 C211.742906,100.97835 200.689384,95.4271609 190.00045,90.0588097 C179.353137,84.712109 169.297488,79.6620031 153.007505,79.6620031 C136.686438,79.6668202 126.558082,84.714544 115.837536,90.0575922 C105.043756,95.4367951 93.8832818,101 76.3214591,101 C58.892932,101 47.8393049,95.4427767 37.1496326,90.0690262 C26.5033209,84.7169261 16.4472505,79.6620031 0.157745557,79.6620031 L0,0 C17.4335323,0 1205.37127,0 1222.84194,0 L1223,79.6613679 C1206.66207,79.6613679 1196.53056,84.7067096 1185.79842,90.048011 C1175.00833,95.4217615 1163.84943,100.97835 1146.28919,100.97835 Z" fill="#EBEBEC"></path>
        </g>
    </g>
</svg>