<svg width="212" height="38" xmlns="http://www.w3.org/2000/svg"><path d="M6.36 37V23.176h5.472L22.104 37h7.92L17.352 20.104 29.448 3.4H21.72l-9.936 13.776H6.36V3.4H.072V37H6.36zm35.672.624c7.008 0 12.72-5.568 12.72-12.528 0-6.96-5.712-12.672-12.72-12.672-7.008 0-12.768 5.712-12.768 12.672 0 6.96 5.76 12.528 12.768 12.528zm0-5.616c-3.696.048-6.576-2.928-6.576-6.864 0-3.984 2.88-6.96 6.576-6.912 3.648-.048 6.528 2.928 6.528 6.912 0 3.936-2.88 6.912-6.528 6.864zm27.512 5.616c7.008 0 12.72-5.568 12.72-12.528 0-6.96-5.712-12.672-12.72-12.672-7.008 0-12.768 5.712-12.768 12.672 0 6.96 5.76 12.528 12.768 12.528zm0-5.616c-3.696.048-6.576-2.928-6.576-6.864 0-3.984 2.88-6.96 6.576-6.912 3.648-.048 6.528 2.928 6.528 6.912 0 3.936-2.88 6.912-6.528 6.864zm25.736 5.376c3.84 0 6.48-1.44 8.208-3.552V37h6V1h-6v15.408c-1.728-2.112-4.368-3.552-8.208-3.552-6.384 0-11.184 5.328-11.184 12.288 0 6.864 4.8 12.24 11.184 12.24zm1.488-5.232c-3.792 0-6.672-3.024-6.672-7.008 0-4.032 2.88-7.056 6.672-7.056s6.72 3.024 6.72 7.056c0 3.984-2.928 7.008-6.72 7.008zM116.6 9.304c1.824 0 3.408-1.536 3.408-3.456 0-1.728-1.584-3.264-3.408-3.264-1.872 0-3.408 1.536-3.408 3.264 0 1.92 1.536 3.456 3.408 3.456zM119.528 37V13.24h-5.856V37h5.856zm6.392.48a3.544 3.544 0 003.552-3.552c0-1.776-1.632-3.36-3.552-3.36-1.872 0-3.504 1.584-3.504 3.36 0 2.016 1.632 3.552 3.504 3.552zm9.416-28.176c1.824 0 3.408-1.536 3.408-3.456 0-1.728-1.584-3.264-3.408-3.264-1.872 0-3.408 1.536-3.408 3.264 0 1.92 1.536 3.456 3.408 3.456zM138.264 37V13.24h-5.856V37h5.856zm9.992 0V25.384c0-4.656 2.352-7.392 5.904-7.392 3.264 0 5.664 2.304 5.664 7.2V37h6V24.712c0-7.728-4.272-11.856-10.368-11.856a9.415 9.415 0 00-7.2 3.312V13.24h-6V37h6zm30.44 0V18.472h6.768V13.24h-6.768V10.6c0-3.072 1.92-4.128 4.128-4.128.816 0 1.632.144 2.304.384l.672-5.472c-1.488-.432-2.928-.672-4.32-.672-5.136 0-8.784 3.216-8.784 8.304v4.224h-5.232v5.232h5.232V37h6zm20.312.624c7.008 0 12.72-5.568 12.72-12.528 0-6.96-5.712-12.672-12.72-12.672-7.008 0-12.768 5.712-12.768 12.672 0 6.96 5.76 12.528 12.768 12.528zm0-5.616c-3.696.048-6.576-2.928-6.576-6.864 0-3.984 2.88-6.96 6.576-6.912 3.648-.048 6.528 2.928 6.528 6.912 0 3.936-2.88 6.912-6.528 6.864z" fill="#fff" fill-rule="nonzero"/></svg>