<?xml version="1.0" encoding="UTF-8"?>
<svg width="212px" height="38px" viewBox="0 0 212 38" version="1.1" xmlns="http://www.w3.org/2000/svg" xmlns:xlink="http://www.w3.org/1999/xlink">
    <!-- Generator: Sketch 61.2 (89653) - https://sketch.com -->
    <title>Koodi.info</title>
    <desc>Created with Sketch.</desc>
    <g id="Page-1" stroke="none" stroke-width="1" fill="none" fill-rule="evenodd">
        <path d="M6.36,37 L6.36,23.176 L11.832,23.176 L22.104,37 L30.024,37 L17.352,20.104 L29.448,3.4 L21.72,3.4 L11.784,17.176 L6.36,17.176 L6.36,3.4 L0.072,3.4 L0.072,37 L6.36,37 Z M42.032,37.624 C49.04,37.624 54.752,32.056 54.752,25.096 C54.752,18.136 49.04,12.424 42.032,12.424 C35.024,12.424 29.264,18.136 29.264,25.096 C29.264,32.056 35.024,37.624 42.032,37.624 Z M42.032,32.008 C38.336,32.056 35.456,29.08 35.456,25.144 C35.456,21.16 38.336,18.184 42.032,18.232 C45.68,18.184 48.56,21.16 48.56,25.144 C48.56,29.08 45.68,32.056 42.032,32.008 Z M69.544,37.624 C76.552,37.624 82.264,32.056 82.264,25.096 C82.264,18.136 76.552,12.424 69.544,12.424 C62.536,12.424 56.776,18.136 56.776,25.096 C56.776,32.056 62.536,37.624 69.544,37.624 Z M69.544,32.008 C65.848,32.056 62.968,29.08 62.968,25.144 C62.968,21.16 65.848,18.184 69.544,18.232 C73.192,18.184 76.072,21.16 76.072,25.144 C76.072,29.08 73.192,32.056 69.544,32.008 Z M95.28,37.384 C99.12,37.384 101.76,35.944 103.488,33.832 L103.488,37 L109.488,37 L109.488,1 L103.488,1 L103.488,16.408 C101.76,14.296 99.12,12.856 95.28,12.856 C88.896,12.856 84.096,18.184 84.096,25.144 C84.096,32.008 88.896,37.384 95.28,37.384 Z M96.768,32.152 C92.976,32.152 90.096,29.128 90.096,25.144 C90.096,21.112 92.976,18.088 96.768,18.088 C100.56,18.088 103.488,21.112 103.488,25.144 C103.488,29.128 100.56,32.152 96.768,32.152 Z M116.6,9.304 C118.424,9.304 120.008,7.768 120.008,5.848 C120.008,4.12 118.424,2.584 116.6,2.584 C114.728,2.584 113.192,4.12 113.192,5.848 C113.192,7.768 114.728,9.304 116.6,9.304 Z M119.528,37 L119.528,13.24 L113.672,13.24 L113.672,37 L119.528,37 Z M125.92,37.48 C127.84,37.48 129.472,35.944 129.472,33.928 C129.472,32.152 127.84,30.568 125.92,30.568 C124.048,30.568 122.416,32.152 122.416,33.928 C122.416,35.944 124.048,37.48 125.92,37.48 Z M135.336,9.304 C137.16,9.304 138.744,7.768 138.744,5.848 C138.744,4.12 137.16,2.584 135.336,2.584 C133.464,2.584 131.928,4.12 131.928,5.848 C131.928,7.768 133.464,9.304 135.336,9.304 Z M138.264,37 L138.264,13.24 L132.408,13.24 L132.408,37 L138.264,37 Z M148.256,37 L148.256,25.384 C148.256,20.728 150.608,17.992 154.16,17.992 C157.424,17.992 159.824,20.296 159.824,25.192 L159.824,37 L165.824,37 L165.824,24.712 C165.824,16.984 161.552,12.856 155.456,12.856 C152.48,12.856 149.936,14.2 148.256,16.168 L148.256,13.24 L142.256,13.24 L142.256,37 L148.256,37 Z M178.696,37 L178.696,18.472 L185.464,18.472 L185.464,13.24 L178.696,13.24 L178.696,10.6 C178.696,7.528 180.616,6.472 182.824,6.472 C183.64,6.472 184.456,6.616 185.128,6.856 L185.8,1.384 C184.312,0.952 182.872,0.712 181.48,0.712 C176.344,0.712 172.696,3.928 172.696,9.016 L172.696,13.24 L167.464,13.24 L167.464,18.472 L172.696,18.472 L172.696,37 L178.696,37 Z M199.008,37.624 C206.016,37.624 211.728,32.056 211.728,25.096 C211.728,18.136 206.016,12.424 199.008,12.424 C192,12.424 186.24,18.136 186.24,25.096 C186.24,32.056 192,37.624 199.008,37.624 Z M199.008,32.008 C195.312,32.056 192.432,29.08 192.432,25.144 C192.432,21.16 195.312,18.184 199.008,18.232 C202.656,18.184 205.536,21.16 205.536,25.144 C205.536,29.08 202.656,32.056 199.008,32.008 Z" id="Koodi.info" fill="#000000" fill-rule="nonzero"></path>
    </g>
</svg>