<svg width="516" height="55" xmlns="http://www.w3.org/2000/svg"><g fill="#FFF" fill-rule="evenodd" fill-opacity=".046"><rect y="6" width="5" height="41.5" rx="2.5"/><rect x="63" y="6" width="5" height="41.5" rx="2.5"/><rect x="7" y="10" width="5" height="34" rx="2.5"/><rect x="70" y="10" width="5" height="34" rx="2.5"/><rect x="14" y="8" width="4.699" height="39" rx="2.349"/><rect x="77" y="8" width="4.699" height="39" rx="2.349"/><rect x="21" width="5" height="54.5" rx="2.5"/><rect x="84" width="5" height="54.5" rx="2.5"/><rect x="28" y="8" width="5" height="37.5" rx="2.5"/><rect x="91" y="8" width="5" height="37.5" rx="2.5"/><rect x="35" y="11" width="5" height="32.5" rx="2.5"/><rect x="98" y="17" width="5" height="19.5" rx="2.5"/><rect x="42" y="6" width="5" height="41.5" rx="2.5"/><rect x="105" y="6" width="5" height="41.5" rx="2.5"/><rect x="49" y="8" width="5" height="39" rx="2.5"/><rect x="112" y="8" width="5" height="39" rx="2.5"/><rect x="56" y="17" width="5" height="19.5" rx="2.5"/><rect x="119" y="10" width="5" height="34" rx="2.5"/><rect x="126" y="6" width="5" height="41.5" rx="2.5"/><rect x="133" y="10" width="5" height="34" rx="2.5"/><rect x="140" y="8" width="4.699" height="39" rx="2.349"/><rect x="147" width="5" height="54.5" rx="2.5"/><rect x="154" y="8" width="5" height="37.5" rx="2.5"/><rect x="161" y="11" width="5" height="32.5" rx="2.5"/><rect x="168" y="6" width="5" height="41.5" rx="2.5"/><rect x="175" y="8" width="5" height="39" rx="2.5"/><rect x="182" y="17" width="5" height="19.5" rx="2.5"/><rect x="189" y="17" width="5" height="19.5" rx="2.5"/><rect x="196" y="10" width="5" height="34" rx="2.5"/><rect x="203" y="8" width="4.699" height="39" rx="2.349"/><rect x="210" width="5" height="54.5" rx="2.5"/><rect x="217" y="8" width="5" height="37.5" rx="2.5"/><rect x="224" y="11" width="5" height="32.5" rx="2.5"/><rect x="231" y="6" width="5" height="41.5" rx="2.5"/><rect x="238" y="8" width="5" height="39" rx="2.5"/><rect x="245" y="10" width="5" height="34" rx="2.5"/><rect x="252" y="6" width="5" height="41.5" rx="2.5"/><rect x="259" y="10" width="5" height="34" rx="2.5"/><rect x="266" y="8" width="4.699" height="39" rx="2.349"/><rect x="273" width="5" height="54.5" rx="2.5"/><rect x="280" y="8" width="5" height="37.5" rx="2.5"/><rect x="287" y="11" width="5" height="32.5" rx="2.5"/><rect x="294" y="17" width="5" height="20" rx="2.5"/><rect x="301" y="17" width="5" height="20" rx="2.5"/><rect x="308" y="17" width="5" height="20" rx="2.5"/><rect x="315" y="6" width="5" height="41.5" rx="2.5"/><rect x="322" y="10" width="5" height="34" rx="2.5"/><rect x="329" y="8" width="4.699" height="39" rx="2.349"/><rect x="336" width="5" height="54.5" rx="2.5"/><rect x="343" y="8" width="5" height="37.5" rx="2.5"/><rect x="350" y="11" width="5" height="32.5" rx="2.5"/><rect x="357" y="6" width="5" height="41.5" rx="2.5"/><rect x="364" y="8" width="5" height="39" rx="2.5"/><rect x="371" y="10" width="5" height="34" rx="2.5"/><rect x="378" y="6" width="5" height="41.5" rx="2.5"/><rect x="385" y="10" width="5" height="34" rx="2.5"/><rect x="392" y="8" width="4.699" height="39" rx="2.349"/><rect x="399" width="5" height="54.5" rx="2.5"/><rect x="406" y="8" width="5" height="37.5" rx="2.5"/><rect x="413" y="11" width="5" height="32.5" rx="2.5"/><rect x="420" y="6" width="5" height="41.5" rx="2.5"/><rect x="427" y="8" width="5" height="39" rx="2.5"/><rect x="434" y="10" width="5" height="34" rx="2.5"/><rect x="441" y="6" width="5" height="41.5" rx="2.5"/><rect x="448" y="10" width="5" height="34" rx="2.5"/><rect x="455" y="8" width="4.699" height="39" rx="2.349"/><rect x="462" width="5" height="54.5" rx="2.5"/><rect x="469" y="8" width="5" height="37.5" rx="2.5"/><rect x="476" y="11" width="5" height="32.5" rx="2.5"/><rect x="483" y="6" width="5" height="41.5" rx="2.5"/><rect x="490" y="8" width="5" height="39" rx="2.5"/><rect x="497" y="10" width="5" height="34" rx="2.5"/><rect x="504" width="5" height="54.5" rx="2.5"/><rect x="511" y="8" width="5" height="37.5" rx="2.5"/></g></svg>