<?xml version="1.0" encoding="UTF-8"?>
<svg width="516px" height="55px" viewBox="0 0 516 55" version="1.1" xmlns="http://www.w3.org/2000/svg" xmlns:xlink="http://www.w3.org/1999/xlink">
    <!-- Generator: Sketch 58 (84663) - https://sketch.com -->
    <title>wave-shape</title>
    <desc>Created with Sketch.</desc>
    <g id="Page-1" stroke="none" stroke-width="1" fill="none" fill-rule="evenodd">
        <g id="wave-shape" fill="#000000">
            <rect id="Rectangle" x="0" y="6" width="5" height="41.5" rx="2.5"></rect>
            <rect id="Rectangle" x="63" y="6" width="5" height="41.5" rx="2.5"></rect>
            <rect id="Rectangle" x="7" y="10" width="5" height="34" rx="2.5"></rect>
            <rect id="Rectangle" x="70" y="10" width="5" height="34" rx="2.5"></rect>
            <rect id="Rectangle" x="14" y="8" width="4.699" height="39" rx="2.349"></rect>
            <rect id="Rectangle" x="77" y="8" width="4.699" height="39" rx="2.349"></rect>
            <rect id="Rectangle" x="21" y="0" width="5" height="54.5" rx="2.5"></rect>
            <rect id="Rectangle" x="84" y="0" width="5" height="54.5" rx="2.5"></rect>
            <rect id="Rectangle" x="28" y="8" width="5" height="37.5" rx="2.5"></rect>
            <rect id="Rectangle" x="91" y="8" width="5" height="37.5" rx="2.5"></rect>
            <rect id="Rectangle" x="35" y="11" width="5" height="32.5" rx="2.5"></rect>
            <rect id="Rectangle" x="98" y="17" width="5" height="19.5" rx="2.5"></rect>
            <rect id="Rectangle" x="42" y="6" width="5" height="41.5" rx="2.5"></rect>
            <rect id="Rectangle" x="105" y="6" width="5" height="41.5" rx="2.5"></rect>
            <rect id="Rectangle" x="49" y="8" width="5" height="39" rx="2.5"></rect>
            <rect id="Rectangle" x="112" y="8" width="5" height="39" rx="2.5"></rect>
            <rect id="Rectangle" x="56" y="17" width="5" height="19.5" rx="2.5"></rect>
            <rect id="Rectangle" x="119" y="10" width="5" height="34" rx="2.5"></rect>
            <rect id="Rectangle" x="126" y="6" width="5" height="41.5" rx="2.5"></rect>
            <rect id="Rectangle" x="133" y="10" width="5" height="34" rx="2.5"></rect>
            <rect id="Rectangle" x="140" y="8" width="4.699" height="39" rx="2.349"></rect>
            <rect id="Rectangle" x="147" y="0" width="5" height="54.5" rx="2.5"></rect>
            <rect id="Rectangle" x="154" y="8" width="5" height="37.5" rx="2.5"></rect>
            <rect id="Rectangle" x="161" y="11" width="5" height="32.5" rx="2.5"></rect>
            <rect id="Rectangle" x="168" y="6" width="5" height="41.5" rx="2.5"></rect>
            <rect id="Rectangle" x="175" y="8" width="5" height="39" rx="2.5"></rect>
            <rect id="Rectangle" x="182" y="17" width="5" height="19.5" rx="2.5"></rect>
            <rect id="Rectangle" x="189" y="17" width="5" height="19.5" rx="2.5"></rect>
            <rect id="Rectangle" x="196" y="10" width="5" height="34" rx="2.5"></rect>
            <rect id="Rectangle" x="203" y="8" width="4.699" height="39" rx="2.349"></rect>
            <rect id="Rectangle" x="210" y="0" width="5" height="54.5" rx="2.5"></rect>
            <rect id="Rectangle" x="217" y="8" width="5" height="37.5" rx="2.5"></rect>
            <rect id="Rectangle" x="224" y="11" width="5" height="32.5" rx="2.5"></rect>
            <rect id="Rectangle" x="231" y="6" width="5" height="41.5" rx="2.5"></rect>
            <rect id="Rectangle" x="238" y="8" width="5" height="39" rx="2.5"></rect>
            <rect id="Rectangle" x="245" y="10" width="5" height="34" rx="2.5"></rect>
            <rect id="Rectangle" x="252" y="6" width="5" height="41.5" rx="2.5"></rect>
            <rect id="Rectangle" x="259" y="10" width="5" height="34" rx="2.5"></rect>
            <rect id="Rectangle" x="266" y="8" width="4.699" height="39" rx="2.349"></rect>
            <rect id="Rectangle" x="273" y="0" width="5" height="54.5" rx="2.5"></rect>
            <rect id="Rectangle" x="280" y="8" width="5" height="37.5" rx="2.5"></rect>
            <rect id="Rectangle" x="287" y="11" width="5" height="32.5" rx="2.5"></rect>
            <rect id="Rectangle" x="294" y="17" width="5" height="20" rx="2.5"></rect>
            <rect id="Rectangle" x="301" y="17" width="5" height="20" rx="2.5"></rect>
            <rect id="Rectangle" x="308" y="17" width="5" height="20" rx="2.5"></rect>
            <rect id="Rectangle" x="315" y="6" width="5" height="41.5" rx="2.5"></rect>
            <rect id="Rectangle" x="322" y="10" width="5" height="34" rx="2.5"></rect>
            <rect id="Rectangle" x="329" y="8" width="4.699" height="39" rx="2.349"></rect>
            <rect id="Rectangle" x="336" y="0" width="5" height="54.5" rx="2.5"></rect>
            <rect id="Rectangle" x="343" y="8" width="5" height="37.5" rx="2.5"></rect>
            <rect id="Rectangle" x="350" y="11" width="5" height="32.5" rx="2.5"></rect>
            <rect id="Rectangle" x="357" y="6" width="5" height="41.5" rx="2.5"></rect>
            <rect id="Rectangle" x="364" y="8" width="5" height="39" rx="2.5"></rect>
            <rect id="Rectangle" x="371" y="10" width="5" height="34" rx="2.5"></rect>
            <rect id="Rectangle" x="378" y="6" width="5" height="41.5" rx="2.5"></rect>
            <rect id="Rectangle" x="385" y="10" width="5" height="34" rx="2.5"></rect>
            <rect id="Rectangle" x="392" y="8" width="4.699" height="39" rx="2.349"></rect>
            <rect id="Rectangle" x="399" y="0" width="5" height="54.5" rx="2.5"></rect>
            <rect id="Rectangle" x="406" y="8" width="5" height="37.5" rx="2.5"></rect>
            <rect id="Rectangle" x="413" y="11" width="5" height="32.5" rx="2.5"></rect>
            <rect id="Rectangle" x="420" y="6" width="5" height="41.5" rx="2.5"></rect>
            <rect id="Rectangle" x="427" y="8" width="5" height="39" rx="2.5"></rect>
            <rect id="Rectangle" x="434" y="10" width="5" height="34" rx="2.5"></rect>
            <rect id="Rectangle" x="441" y="6" width="5" height="41.5" rx="2.5"></rect>
            <rect id="Rectangle" x="448" y="10" width="5" height="34" rx="2.5"></rect>
            <rect id="Rectangle" x="455" y="8" width="4.699" height="39" rx="2.349"></rect>
            <rect id="Rectangle" x="462" y="0" width="5" height="54.5" rx="2.5"></rect>
            <rect id="Rectangle" x="469" y="8" width="5" height="37.5" rx="2.5"></rect>
            <rect id="Rectangle" x="476" y="11" width="5" height="32.5" rx="2.5"></rect>
            <rect id="Rectangle" x="483" y="6" width="5" height="41.5" rx="2.5"></rect>
            <rect id="Rectangle" x="490" y="8" width="5" height="39" rx="2.5"></rect>
            <rect id="Rectangle" x="497" y="10" width="5" height="34" rx="2.5"></rect>
            <rect id="Rectangle" x="504" y="0" width="5" height="54.5" rx="2.5"></rect>
            <rect id="Rectangle" x="511" y="8" width="5" height="37.5" rx="2.5"></rect>
        </g>
    </g>
</svg>